<mxfile host="app.diagrams.net" modified="2024-03-24T05:35:51.969Z" agent="Mozilla/5.0 (Windows NT 10.0; Win64; x64) AppleWebKit/537.36 (KHTML, like Gecko) Chrome/122.0.0.0 Safari/537.36 Edg/122.0.0.0" etag="qcwioZamaKlAf7lhimvP" version="24.1.0" type="google">
  <diagram name="Page-1" id="Ty5cMEmBaY1ef5a95TEA">
    <mxGraphModel grid="1" page="1" gridSize="10" guides="1" tooltips="1" connect="1" arrows="1" fold="1" pageScale="1" pageWidth="827" pageHeight="1169" math="0" shadow="0">
      <root>
        <mxCell id="0" />
        <mxCell id="1" parent="0" />
        <mxCell id="ki9lc4XWbzchRjxS0uBP-4" value="" style="edgeStyle=orthogonalEdgeStyle;rounded=0;orthogonalLoop=1;jettySize=auto;html=1;" edge="1" parent="1" source="ki9lc4XWbzchRjxS0uBP-1" target="ki9lc4XWbzchRjxS0uBP-3">
          <mxGeometry relative="1" as="geometry" />
        </mxCell>
        <mxCell id="ki9lc4XWbzchRjxS0uBP-1" value="Start" style="ellipse;whiteSpace=wrap;html=1;" vertex="1" parent="1">
          <mxGeometry x="354" y="10" width="120" height="80" as="geometry" />
        </mxCell>
        <mxCell id="ki9lc4XWbzchRjxS0uBP-2" value="int diemduongtron(float x0, float y0, float R, float x, float y)" style="text;html=1;align=center;verticalAlign=middle;whiteSpace=wrap;rounded=0;" vertex="1" parent="1">
          <mxGeometry width="320" height="50" as="geometry" />
        </mxCell>
        <mxCell id="ki9lc4XWbzchRjxS0uBP-6" value="" style="edgeStyle=orthogonalEdgeStyle;rounded=0;orthogonalLoop=1;jettySize=auto;html=1;" edge="1" parent="1" source="ki9lc4XWbzchRjxS0uBP-3" target="ki9lc4XWbzchRjxS0uBP-5">
          <mxGeometry relative="1" as="geometry" />
        </mxCell>
        <mxCell id="ki9lc4XWbzchRjxS0uBP-3" value="Input x0, y0, R, x, y" style="shape=parallelogram;perimeter=parallelogramPerimeter;whiteSpace=wrap;html=1;fixedSize=1;" vertex="1" parent="1">
          <mxGeometry x="339" y="130" width="150" height="60" as="geometry" />
        </mxCell>
        <mxCell id="ki9lc4XWbzchRjxS0uBP-8" value="" style="edgeStyle=orthogonalEdgeStyle;rounded=0;orthogonalLoop=1;jettySize=auto;html=1;" edge="1" parent="1" source="ki9lc4XWbzchRjxS0uBP-5" target="ki9lc4XWbzchRjxS0uBP-7">
          <mxGeometry relative="1" as="geometry" />
        </mxCell>
        <mxCell id="ki9lc4XWbzchRjxS0uBP-5" value="distance = sqrt(pow((x - x0)^2 + pow(y - y0)^ 2)" style="whiteSpace=wrap;html=1;" vertex="1" parent="1">
          <mxGeometry x="284" y="220" width="260" height="60" as="geometry" />
        </mxCell>
        <mxCell id="ki9lc4XWbzchRjxS0uBP-10" value="Yes" style="edgeStyle=orthogonalEdgeStyle;rounded=0;orthogonalLoop=1;jettySize=auto;html=1;" edge="1" parent="1" source="ki9lc4XWbzchRjxS0uBP-7" target="ki9lc4XWbzchRjxS0uBP-9">
          <mxGeometry relative="1" as="geometry" />
        </mxCell>
        <mxCell id="ki9lc4XWbzchRjxS0uBP-12" value="No" style="edgeStyle=orthogonalEdgeStyle;rounded=0;orthogonalLoop=1;jettySize=auto;html=1;" edge="1" parent="1" source="ki9lc4XWbzchRjxS0uBP-7" target="ki9lc4XWbzchRjxS0uBP-11">
          <mxGeometry relative="1" as="geometry" />
        </mxCell>
        <mxCell id="ki9lc4XWbzchRjxS0uBP-7" value="distance&amp;lt;R?" style="rhombus;whiteSpace=wrap;html=1;" vertex="1" parent="1">
          <mxGeometry x="319" y="320" width="190" height="80" as="geometry" />
        </mxCell>
        <mxCell id="ki9lc4XWbzchRjxS0uBP-18" value="" style="edgeStyle=orthogonalEdgeStyle;rounded=0;orthogonalLoop=1;jettySize=auto;html=1;" edge="1" parent="1" source="ki9lc4XWbzchRjxS0uBP-9" target="ki9lc4XWbzchRjxS0uBP-17">
          <mxGeometry relative="1" as="geometry">
            <Array as="points">
              <mxPoint x="135" y="810" />
              <mxPoint x="415" y="810" />
            </Array>
          </mxGeometry>
        </mxCell>
        <mxCell id="ki9lc4XWbzchRjxS0uBP-9" value="Display Trong" style="shape=parallelogram;perimeter=parallelogramPerimeter;whiteSpace=wrap;html=1;fixedSize=1;" vertex="1" parent="1">
          <mxGeometry x="60" y="640" width="150" height="70" as="geometry" />
        </mxCell>
        <mxCell id="ki9lc4XWbzchRjxS0uBP-14" value="No" style="edgeStyle=orthogonalEdgeStyle;rounded=0;orthogonalLoop=1;jettySize=auto;html=1;" edge="1" parent="1" source="ki9lc4XWbzchRjxS0uBP-11" target="ki9lc4XWbzchRjxS0uBP-13">
          <mxGeometry relative="1" as="geometry" />
        </mxCell>
        <mxCell id="ki9lc4XWbzchRjxS0uBP-16" value="Yes" style="edgeStyle=orthogonalEdgeStyle;rounded=0;orthogonalLoop=1;jettySize=auto;html=1;" edge="1" parent="1" source="ki9lc4XWbzchRjxS0uBP-11" target="ki9lc4XWbzchRjxS0uBP-15">
          <mxGeometry relative="1" as="geometry" />
        </mxCell>
        <mxCell id="ki9lc4XWbzchRjxS0uBP-11" value="distance&amp;lt;R?" style="rhombus;whiteSpace=wrap;html=1;" vertex="1" parent="1">
          <mxGeometry x="319" y="480" width="190" height="80" as="geometry" />
        </mxCell>
        <mxCell id="ki9lc4XWbzchRjxS0uBP-20" value="" style="edgeStyle=orthogonalEdgeStyle;rounded=0;orthogonalLoop=1;jettySize=auto;html=1;" edge="1" parent="1" source="ki9lc4XWbzchRjxS0uBP-13" target="ki9lc4XWbzchRjxS0uBP-17">
          <mxGeometry relative="1" as="geometry">
            <Array as="points">
              <mxPoint x="655" y="810" />
              <mxPoint x="415" y="810" />
            </Array>
          </mxGeometry>
        </mxCell>
        <mxCell id="ki9lc4XWbzchRjxS0uBP-13" value="Display Ngoài" style="shape=parallelogram;perimeter=parallelogramPerimeter;whiteSpace=wrap;html=1;fixedSize=1;" vertex="1" parent="1">
          <mxGeometry x="580" y="645" width="150" height="65" as="geometry" />
        </mxCell>
        <mxCell id="ki9lc4XWbzchRjxS0uBP-19" value="" style="edgeStyle=orthogonalEdgeStyle;rounded=0;orthogonalLoop=1;jettySize=auto;html=1;" edge="1" parent="1" source="ki9lc4XWbzchRjxS0uBP-15" target="ki9lc4XWbzchRjxS0uBP-17">
          <mxGeometry relative="1" as="geometry" />
        </mxCell>
        <mxCell id="ki9lc4XWbzchRjxS0uBP-15" value="Display Trên đường" style="shape=parallelogram;perimeter=parallelogramPerimeter;whiteSpace=wrap;html=1;fixedSize=1;" vertex="1" parent="1">
          <mxGeometry x="330" y="650" width="170" height="60" as="geometry" />
        </mxCell>
        <mxCell id="ki9lc4XWbzchRjxS0uBP-17" value="End" style="ellipse;whiteSpace=wrap;html=1;" vertex="1" parent="1">
          <mxGeometry x="355" y="760" width="120" height="80" as="geometry" />
        </mxCell>
      </root>
    </mxGraphModel>
  </diagram>
</mxfile>
